<svg width="32" height="32" viewBox="0 0 32 32" fill="none" xmlns="http://www.w3.org/2000/svg">
<path d="M23.6095 16.3906C23.4857 16.2667 23.3388 16.1683 23.177 16.1013C23.0153 16.0342 22.8419 15.9997 22.6668 15.9997C22.4917 15.9997 22.3183 16.0342 22.1565 16.1013C21.9948 16.1683 21.8478 16.2667 21.7241 16.3906L19.5988 18.5159C18.6135 18.2226 16.7748 17.5559 15.6095 16.3906C14.4441 15.2253 13.7775 13.3866 13.4841 12.4013L15.6095 10.2759C15.7334 10.1522 15.8317 10.0053 15.8988 9.84351C15.9659 9.68176 16.0004 9.50837 16.0004 9.33326C16.0004 9.15814 15.9659 8.98475 15.8988 8.823C15.8317 8.66124 15.7334 8.51431 15.6095 8.39059L10.2761 3.05726C10.1524 2.93333 10.0055 2.83501 9.84371 2.76793C9.68196 2.70085 9.50856 2.66632 9.33345 2.66632C9.15834 2.66632 8.98495 2.70085 8.82319 2.76793C8.66144 2.83501 8.5145 2.93333 8.39079 3.05726L4.77479 6.67326C4.26812 7.17992 3.98279 7.87592 3.99345 8.58659C4.02412 10.4853 4.52679 17.0799 9.72412 22.2773C14.9215 27.4746 21.5161 27.9759 23.4161 28.0079H23.4535C24.1575 28.0079 24.8228 27.7306 25.3268 27.2266L28.9428 23.6106C29.0667 23.4869 29.165 23.3399 29.2321 23.1782C29.2992 23.0164 29.3337 22.843 29.3337 22.6679C29.3337 22.4928 29.2992 22.3194 29.2321 22.1577C29.165 21.9959 29.0667 21.849 28.9428 21.7253L23.6095 16.3906ZM23.4401 25.3399C21.7761 25.3119 16.0828 24.8653 11.6095 20.3906C7.12145 15.9026 6.68679 10.1893 6.66012 8.55859L9.33345 5.88526L12.7815 9.33326L11.0575 11.0573C10.9007 11.2139 10.7855 11.407 10.7222 11.6193C10.6589 11.8317 10.6495 12.0564 10.6948 12.2733C10.7268 12.4266 11.5095 16.0626 13.7228 18.2759C15.9361 20.4893 19.5721 21.2719 19.7255 21.3039C19.9422 21.3505 20.1671 21.3419 20.3796 21.2787C20.5921 21.2156 20.7853 21.1 20.9415 20.9426L22.6668 19.2186L26.1148 22.6666L23.4401 25.3399Z" fill="black"/>
</svg>
