<svg width="16" height="17" viewBox="0 0 16 17" fill="none" xmlns="http://www.w3.org/2000/svg">
<path fill-rule="evenodd" clip-rule="evenodd" d="M13.82 5.24683L13.7267 5.08016C13.6063 4.87862 13.4365 4.71112 13.2333 4.5935L8.76 2.0135C8.55746 1.896 8.32753 1.83391 8.09333 1.8335H7.9C7.6658 1.83391 7.43586 1.896 7.23333 2.0135L2.76 4.60016C2.55798 4.717 2.39017 4.88481 2.27333 5.08683L2.18 5.2535C2.0625 5.45606 2.00041 5.68599 2 5.92016V11.0868C2.00041 11.321 2.0625 11.551 2.18 11.7535L2.27333 11.9202C2.39319 12.1198 2.56033 12.287 2.76 12.4068L7.24 14.9868C7.44153 15.1068 7.67213 15.169 7.90666 15.1668H8.09333C8.32753 15.1664 8.55746 15.1044 8.76 14.9868L13.2333 12.4002C13.4373 12.286 13.6058 12.1175 13.72 11.9135L13.82 11.7468C13.9361 11.5437 13.9981 11.3142 14 11.0802V5.9135C13.9996 5.67932 13.9375 5.44939 13.82 5.24683ZM7.9 3.16683H8.09333L12 5.42016L8 7.72683L4 5.42016L7.9 3.16683ZM8.66666 13.5002L12.5667 11.2468L12.6667 11.0802V6.5735L8.66666 8.88683V13.5002Z" fill="black"/>
</svg>
