<svg width="32" height="32" viewBox="0 0 32 32" fill="none" xmlns="http://www.w3.org/2000/svg">
<path d="M16.0002 18.6667C18.9416 18.6667 21.3336 16.2747 21.3336 13.3334C21.3336 10.392 18.9416 8.00002 16.0002 8.00002C13.0589 8.00002 10.6669 10.392 10.6669 13.3334C10.6669 16.2747 13.0589 18.6667 16.0002 18.6667ZM16.0002 10.6667C17.4709 10.6667 18.6669 11.8627 18.6669 13.3334C18.6669 14.804 17.4709 16 16.0002 16C14.5296 16 13.3336 14.804 13.3336 13.3334C13.3336 11.8627 14.5296 10.6667 16.0002 10.6667Z" fill="black"/>
<path d="M15.2269 29.0854C15.4526 29.2465 15.723 29.3331 16.0003 29.3331C16.2776 29.3331 16.5479 29.2465 16.7736 29.0854C17.1789 28.7987 26.7056 21.92 26.6669 13.3334C26.6669 7.45202 21.8816 2.66669 16.0003 2.66669C10.1189 2.66669 5.33361 7.45202 5.33361 13.3267C5.29495 21.92 14.8216 28.7987 15.2269 29.0854ZM16.0003 5.33335C20.4123 5.33335 24.0003 8.92135 24.0003 13.34C24.0283 19.2574 18.1496 24.5707 16.0003 26.3134C13.8523 24.5694 7.97228 19.2547 8.00028 13.3334C8.00028 8.92135 11.5883 5.33335 16.0003 5.33335Z" fill="black"/>
</svg>
